# Blender v2.80 (sub 75) OBJ File: 'table_07.blend'
# www.blender.org
mtllib table_07.mtl
o Cube.003
v 0.550262 0.188351 -1.187363
v 0.550262 0.188351 1.187363
v -0.550261 0.188351 -1.187363
v -0.550262 0.188351 1.187362
v 0.167238 0.188351 -0.524815
v 0.167238 0.188351 0.524814
v -0.167237 0.188351 -0.524815
v -0.167238 0.188351 0.524814
v 0.167238 0.188351 -0.000000
v 0.000000 0.188351 -0.524815
v -0.000000 0.188351 0.524814
v -0.167237 0.188351 -0.000000
v 0.000000 0.172359 -0.000000
v -0.000000 1.314440 0.500000
v 0.011803 0.172359 -0.000000
v -0.011803 0.172359 -0.000000
v 0.006695 1.314440 0.500000
v -0.006695 1.314440 0.500000
v -0.006695 0.158724 -0.005970
v 0.006695 0.172743 -0.006307
v 0.000000 1.314440 -0.500000
v 0.000000 1.314440 -1.024815
v -0.000000 1.314440 1.024814
v -0.000000 1.314440 0.500000
v -0.167237 1.314440 -0.847126
v 0.000945 1.314440 -1.024815
v -0.154435 1.314440 -0.915124
v -0.117978 1.314440 -0.972771
v -0.063416 1.314440 -1.011289
v -0.000945 1.314440 -1.024815
v 0.167237 1.314440 -0.847126
v 0.063416 1.314440 -1.011289
v 0.117978 1.314440 -0.972771
v 0.154435 1.314440 -0.915124
v -0.011803 1.314440 -0.500000
v -0.167237 1.314440 -0.664221
v -0.071285 1.314440 -0.512501
v -0.121712 1.314440 -0.548099
v -0.155406 1.314440 -0.601376
v 0.167238 1.314440 -0.664221
v 0.011803 1.314440 -0.500000
v 0.155406 1.314440 -0.601376
v 0.121712 1.314440 -0.548099
v 0.071285 1.314440 -0.512501
v -0.167238 1.314440 0.683764
v 0.006695 1.314440 0.500000
v -0.153998 1.314440 0.613440
v -0.116294 1.314440 0.553823
v -0.059866 1.314440 0.513988
v -0.006695 1.314440 0.500000
v 0.167237 1.314440 0.683764
v 0.059866 1.314440 0.513988
v 0.116294 1.314440 0.553823
v 0.153998 1.314440 0.613440
v -0.002830 1.314440 1.024814
v -0.167238 1.314440 0.851113
v -0.065746 1.314440 1.011592
v -0.119084 1.314440 0.973938
v -0.154723 1.314440 0.917585
v 0.167237 1.314440 0.851113
v 0.002830 1.314440 1.024814
v 0.154723 1.314440 0.917585
v 0.119084 1.314440 0.973938
v 0.065746 1.314440 1.011592
v 0.167238 0.172359 -0.524815
v 0.167238 0.172359 0.524814
v -0.167237 0.172359 -0.524815
v -0.167238 0.172359 0.524814
v 0.167238 0.172359 -0.000000
v 0.000000 0.172359 -0.524815
v -0.000000 0.172359 0.524814
v -0.167237 0.172359 -0.000000
v 0.000000 0.172359 -0.524815
v -0.000000 0.172359 0.524814
v 0.000000 0.172359 -0.000000
v 0.000000 1.314440 -0.500000
v 0.000000 1.314440 -1.024815
v -0.000000 1.314440 1.024814
v 0.167238 0.172359 -0.347126
v -0.000945 0.172359 -0.524815
v 0.167238 0.172359 -0.524815
v 0.154435 0.165880 -0.412288
v 0.117978 0.163605 -0.468938
v 0.063416 0.165880 -0.508453
v 0.000945 0.172359 -0.524815
v -0.167237 0.172359 -0.347126
v -0.167237 0.172359 -0.524815
v -0.063416 0.165880 -0.508453
v -0.117978 0.163605 -0.468938
v -0.154435 0.165880 -0.412288
v -0.167237 1.314440 -0.847126
v 0.000945 1.314440 -1.024815
v -0.154435 1.314440 -0.915124
v -0.117978 1.314440 -0.972771
v -0.063416 1.314440 -1.011289
v -0.000945 1.314440 -1.024815
v 0.167237 1.314440 -0.847126
v 0.063416 1.314440 -1.011289
v 0.117978 1.314440 -0.972771
v 0.154435 1.314440 -0.915124
v 0.011803 0.172359 -0.000000
v 0.167238 0.172359 -0.164221
v 0.167238 0.172359 -0.000000
v 0.167238 0.168133 0.155434
v 0.071285 0.178347 -0.015122
v 0.121712 0.167772 -0.051641
v 0.155406 0.165670 -0.103998
v -0.167237 0.172359 -0.164221
v -0.011803 0.172359 -0.000000
v -0.167238 0.172359 0.164221
v -0.167237 0.172359 -0.000000
v -0.155406 0.165670 -0.103998
v -0.121712 0.169885 -0.051641
v -0.071285 0.178347 -0.015122
v -0.011803 1.314440 -0.500000
v -0.167237 1.314440 -0.664221
v -0.071285 1.314440 -0.512501
v -0.121712 1.314440 -0.548099
v -0.155406 1.314440 -0.601376
v 0.167238 1.314440 -0.664221
v 0.011803 1.314440 -0.500000
v 0.155406 1.314440 -0.601376
v 0.121712 1.314440 -0.548099
v 0.071285 1.314440 -0.512501
v -0.167238 1.314440 0.683764
v 0.006695 1.314440 0.500000
v -0.153998 1.314440 0.613440
v -0.116294 1.314440 0.553823
v -0.059866 1.314440 0.513988
v -0.006695 1.314440 0.500000
v 0.167237 1.314440 0.683764
v 0.059866 1.314440 0.513988
v 0.116294 1.314440 0.553823
v 0.153998 1.314440 0.613440
v 0.167238 0.151477 0.174622
v -0.006695 0.158724 -0.005970
v 0.153998 0.170313 0.122720
v 0.116294 0.169563 0.070174
v 0.059866 0.170009 0.024984
v 0.006695 0.172743 -0.006307
v -0.167238 0.157953 0.177457
v -0.059866 0.169899 0.025861
v -0.116294 0.161240 0.072080
v -0.153998 0.165674 0.125314
v 0.002830 0.172359 0.524814
v 0.167238 0.172359 0.351113
v 0.167238 0.172359 0.524814
v 0.065746 0.166026 0.508819
v 0.119084 0.163801 0.470192
v 0.154723 0.166026 0.414813
v -0.167238 0.172359 0.351113
v -0.002830 0.172359 0.524814
v -0.167238 0.172359 0.524814
v -0.154723 0.166026 0.414813
v -0.119084 0.163801 0.470192
v -0.065746 0.166026 0.508819
v -0.002830 1.314440 1.024814
v -0.167238 1.314440 0.851113
v -0.065746 1.314440 1.011592
v -0.119084 1.314440 0.973938
v -0.154723 1.314440 0.917585
v 0.167237 1.314440 0.851113
v 0.002830 1.314440 1.024814
v 0.154723 1.314440 0.917585
v 0.119084 1.314440 0.973938
v 0.065746 1.314440 1.011592
v 1.671907 1.352378 2.420075
v 1.571907 1.352378 2.520075
v 1.668499 1.352378 2.445957
v 1.658509 1.352378 2.470075
v 1.642617 1.352378 2.490786
v 1.621906 1.352378 2.506678
v 1.597788 1.352378 2.516668
v 1.571907 1.439992 2.520075
v 1.671907 1.439992 2.420075
v 1.597788 1.439992 2.516668
v 1.621907 1.439992 2.506678
v 1.642617 1.439992 2.490786
v 1.658509 1.439992 2.470075
v 1.668499 1.439992 2.445957
v 1.571907 1.352378 -2.520075
v 1.671907 1.352378 -2.420075
v 1.597788 1.352378 -2.516668
v 1.621907 1.352378 -2.506678
v 1.642617 1.352378 -2.490786
v 1.658509 1.352378 -2.470075
v 1.668499 1.352378 -2.445957
v 1.671907 1.439992 -2.420075
v 1.571907 1.439992 -2.520075
v 1.668499 1.439992 -2.445957
v 1.658509 1.439992 -2.470075
v 1.642617 1.439992 -2.490786
v 1.621906 1.439992 -2.506678
v 1.597788 1.439992 -2.516668
v -1.671907 1.352378 -2.420075
v -1.571907 1.352378 -2.520075
v -1.668499 1.352378 -2.445957
v -1.658509 1.352378 -2.470075
v -1.642617 1.352378 -2.490786
v -1.621906 1.352378 -2.506678
v -1.597788 1.352378 -2.516668
v -1.571907 1.439992 -2.520075
v -1.671907 1.439992 -2.420075
v -1.597788 1.439992 -2.516668
v -1.621907 1.439992 -2.506678
v -1.642617 1.439992 -2.490786
v -1.658509 1.439992 -2.470075
v -1.668499 1.439992 -2.445957
v -1.571907 1.352378 2.520075
v -1.671907 1.352378 2.420075
v -1.597788 1.352378 2.516668
v -1.621907 1.352378 2.506678
v -1.642617 1.352378 2.490786
v -1.658509 1.352378 2.470075
v -1.668499 1.352378 2.445957
v -1.671907 1.439992 2.420075
v -1.571907 1.439992 2.520075
v -1.668499 1.439992 2.445957
v -1.658509 1.439992 2.470075
v -1.642617 1.439992 2.490786
v -1.621906 1.439992 2.506678
v -1.597788 1.439992 2.516668
v 1.282712 0.043769 -1.919811
v 1.282710 0.043769 1.919813
v -1.282711 0.043769 1.919811
v -1.282711 0.043769 -1.919812
v 0.550262 0.188351 1.187363
v -0.550261 0.188351 -1.187363
v -0.550262 0.188351 1.187362
v 0.167238 0.188351 -0.000000
v 0.167238 0.182925 0.155434
v 0.167238 0.188351 0.351113
v 0.167238 0.188351 0.524814
v 0.154723 0.180218 0.414813
v 1.282711 0.138351 1.919813
v -1.232711 0.188351 1.869812
v -1.282711 0.138351 1.919812
v 1.232711 0.188351 1.869812
v -1.282711 0.138351 -1.919813
v -1.232710 0.188351 -1.869813
v 1.282711 0.138351 -1.919812
v 0.550262 0.188351 -1.187363
v 1.232711 0.188351 -1.869812
vn -0.2143 0.3946 -0.8935
vn -0.2897 0.2986 -0.9093
vn 0.0000 0.3120 -0.9501
vn 0.0000 -0.4010 -0.9160
vn 0.8674 -0.4834 0.1181
vn -0.1048 -0.9887 -0.1070
vn -0.6662 -0.7407 -0.0863
vn -0.9969 -0.0312 -0.0716
vn -0.9918 0.0511 0.1168
vn -0.6938 -0.7183 0.0517
vn -0.9969 0.0313 -0.0716
vn -0.9918 0.0511 -0.1168
vn -0.9967 -0.0320 0.0738
vn -0.9750 -0.1965 0.1037
vn -0.2351 -0.9707 -0.0493
vn -0.0263 -0.7869 -0.6165
vn -0.2101 -0.7870 -0.5800
vn -0.4055 -0.7937 -0.4533
vn -0.5692 -0.7613 -0.3103
vn 0.0390 -0.9987 -0.0337
vn -0.6421 -0.7174 0.2701
vn -0.4070 -0.8141 0.4142
vn -0.2251 -0.8237 0.5204
vn -0.2077 -0.6439 0.7364
vn 0.0000 -0.7071 0.7071
vn -0.0659 -0.9578 0.2797
vn 0.1078 -0.9938 -0.0271
vn 0.6938 -0.7183 -0.0517
vn -0.0461 -0.8731 0.4852
vn 0.9320 -0.1453 -0.3320
vn -0.8674 -0.4834 0.1181
vn -0.9320 -0.1453 -0.3320
vn 0.6791 -0.0199 0.7338
vn 0.7550 -0.0940 0.6489
vn 0.0000 -1.0000 0.0000
vn 0.0481 -0.9116 0.4083
vn 0.9918 0.0511 0.1168
vn 0.9969 -0.0312 -0.0716
vn 0.0000 -0.2314 -0.9728
vn -0.0925 -0.5748 -0.8130
vn 0.0357 -0.9978 0.0558
vn -0.0002 -0.7933 -0.6088
vn 0.0974 -0.3991 -0.9117
vn -0.0974 -0.3991 -0.9117
vn -0.4641 -0.8348 0.2961
vn -0.5301 -0.7092 0.4647
vn -0.4199 -0.7311 0.5377
vn 0.4199 -0.7311 0.5377
vn 0.5301 -0.7092 0.4647
vn 0.4641 -0.8348 0.2961
vn 0.3537 0.3751 0.8568
vn 0.6686 0.2982 0.6812
vn 0.8991 0.1755 0.4009
vn -0.8991 0.1755 0.4009
vn -0.6686 0.2982 0.6812
vn -0.3537 0.3751 0.8568
vn 0.9507 -0.2900 0.1093
vn 0.9965 -0.0329 0.0764
vn 0.9918 0.0511 -0.1168
vn 0.5489 -0.7717 -0.3211
vn 0.3851 -0.7950 -0.4687
vn 0.1812 -0.7898 -0.5860
vn 0.2932 -0.4519 0.8425
vn 0.2273 -0.8364 0.4988
vn 0.3857 -0.8313 0.4003
vn 0.5980 -0.7546 0.2701
vn 0.9359 -0.1402 -0.3231
vn 0.7312 -0.2719 -0.6256
vn 0.4049 -0.3660 -0.8379
vn -0.4078 -0.3653 -0.8368
vn -0.7312 -0.2716 -0.6257
vn -0.9354 -0.1407 -0.3244
vn 0.2902 0.9378 0.1906
vn -0.2662 -0.3827 0.8847
vn -0.4389 -0.3540 0.8258
vn -0.7185 -0.2722 0.6400
vn -0.9299 -0.1449 0.3381
vn 0.9276 -0.1461 0.3438
vn 0.7242 -0.2679 0.6353
vn 0.4696 -0.3477 0.8115
vn 0.3103 -0.3792 0.8717
vn -0.4199 -0.7311 -0.5377
vn -0.5301 -0.7092 -0.4647
vn -0.9409 -0.0829 -0.3282
vn 0.4641 -0.8348 -0.2961
vn 0.5301 -0.7092 -0.4647
vn 0.4199 -0.7311 -0.5377
vn 0.8991 0.1755 -0.4009
vn 0.6686 0.2982 -0.6812
vn 0.3537 0.3751 -0.8568
vn 0.0924 0.3993 -0.9121
vn -0.0924 0.3993 -0.9121
vn -0.3537 0.3751 -0.8568
vn -0.6686 0.2982 -0.6812
vn -0.8991 0.1755 -0.4009
vn 0.0000 0.4010 -0.9160
vn 0.0000 1.0000 0.0000
vn 0.5449 -0.8385 0.0000
vn 0.0000 -0.0000 -1.0000
vn 1.0000 -0.0000 0.0000
vn 0.7071 -0.7071 0.0000
vn 0.0000 -0.7071 -0.7071
vn -0.7071 -0.7071 -0.0000
vn -1.0000 -0.0000 -0.0000
vn -0.0000 0.0000 1.0000
vn 0.1305 0.0000 0.9914
vn 0.3827 -0.0000 0.9239
vn 0.6088 0.0000 0.7934
vn 0.7934 0.0000 0.6088
vn 0.9239 0.0000 0.3827
vn 0.9914 0.0000 0.1305
vn 0.9914 0.0000 -0.1305
vn 0.9239 0.0000 -0.3827
vn 0.7934 0.0000 -0.6088
vn 0.6088 0.0000 -0.7934
vn 0.3827 0.0000 -0.9239
vn 0.1305 0.0000 -0.9914
vn -0.1305 0.0000 -0.9914
vn -0.3827 -0.0000 -0.9239
vn -0.6088 0.0000 -0.7934
vn -0.7934 0.0000 -0.6088
vn -0.9239 0.0000 -0.3827
vn -0.9914 0.0000 -0.1305
vn -0.1305 0.0000 0.9914
vn -0.3827 0.0000 0.9239
vn -0.6088 0.0000 0.7934
vn -0.7934 0.0000 0.6088
vn -0.9239 0.0000 0.3827
vn -0.9914 0.0000 0.1305
usemtl Chrome
s 1
f 14//1 17//1 20//1 16//1 13//1 15//1 19//1 18//1
f 67//2 70//3 73//4 85//5 87//6
f 102//7 120//8 97//9 79//10
f 146//11 162//12 131//13 135//14 104//15
f 101//16 105//17 106//18 107//19 102//7 103//20 104//15 135//14 137//21 138//22 139//23 136//24
f 68//25 72//25 111//26 110//27 151//28 153//29
f 77//4 92//30 85//5 73//4 80//31 96//32
f 72//25 67//2 87//6 86//33 108//34 111//26
f 65//25 69//35 103//20 102//7 79//10 81//36
f 70//3 65//25 81//36 80//31 73//4
f 86//33 91//37 116//38 108//34
f 66//35 71//25 74//39 145//40 147//41
f 109//42 115//43 76//4 121//44 101//16 75//4
f 79//10 82//45 81//36
f 82//45 83//46 81//36
f 83//46 84//47 81//36
f 84//47 80//31 81//36
f 85//5 88//48 87//6
f 88//48 89//49 87//6
f 89//49 90//50 87//6
f 90//50 86//33 87//6
f 85//5 92//30 95//51 88//48
f 88//48 95//51 94//52 89//49
f 89//49 94//52 93//53 90//50
f 90//50 93//53 91//37 86//33
f 79//10 97//9 100//54 82//45
f 82//45 100//54 99//55 83//46
f 83//46 99//55 98//56 84//47
f 84//47 98//56 96//32 80//31
f 110//27 141//57 125//58 158//59 151//28
f 108//34 112//60 113//61 114//62 109//42 140//63 142//64 143//65 144//66 141//57 110//27 111//26
f 108//34 116//38 119//67 112//60
f 112//60 119//67 118//68 113//61
f 113//61 118//68 117//69 114//62
f 114//62 117//69 115//43 109//42
f 101//16 121//44 124//70 105//17
f 105//17 124//70 123//71 106//18
f 106//18 123//71 122//72 107//19
f 107//19 122//72 120//8 102//7
f 71//25 68//25 153//29 152//73 74//39
f 130//74 136//24 139//23 132//75
f 132//75 139//23 138//22 133//76
f 133//76 138//22 137//21 134//77
f 134//77 137//21 135//14 131//13
f 125//58 141//57 144//66 127//78
f 127//78 144//66 143//65 128//79
f 128//79 143//65 142//64 129//80
f 129//80 142//64 140//63 126//81
f 145//40 148//82 147//41
f 148//82 149//83 147//41
f 149//83 150//84 147//41
f 151//28 154//85 153//29
f 154//85 155//86 153//29
f 155//86 156//87 153//29
f 156//87 152//73 153//29
f 151//28 158//59 161//88 154//85
f 154//85 161//88 160//89 155//86
f 155//86 160//89 159//90 156//87
f 156//87 159//90 157//91 152//73
f 145//40 163//92 166//93 148//82
f 148//82 166//93 165//94 149//83
f 149//83 165//94 164//95 150//84
f 150//84 164//95 162//12 146//11
f 152//73 157//91 78//96 163//92 145//40 74//39
usemtl Bottom
s off
f 6//35 9//35 5//35 1//35 2//35
f 5//35 10//35 7//35 3//35 1//35
f 8//35 11//35 6//35 2//35 4//35
f 7//35 12//35 8//35 4//35 3//35
f 223//97 226//97 225//97 224//97
f 234//98 232//98 233//98
f 235//99 224//99 225//99 237//99
f 228//35 229//35 236//35 240//35
f 229//35 227//35 238//35 236//35
f 227//35 242//35 243//35 238//35
f 237//100 225//100 226//100 239//100
f 230//100 233//100 232//100 231//100
f 243//35 242//35 228//35 240//35
f 237//101 239//101 240//101 236//101
f 236//102 238//102 235//102 237//102
f 238//103 243//103 241//103 235//103
f 241//104 223//104 224//104 235//104
f 239//25 241//25 243//25 240//25
f 223//105 241//105 239//105 226//105
s 1
f 21//35 35//35 37//35 38//35 39//35 36//35 25//35 27//35 28//35 29//35 26//35 22//35 30//35 32//35 33//35 34//35 31//35 40//35 42//35 43//35 44//35 41//35
f 23//35 55//35 57//35 58//35 59//35 56//35 45//35 47//35 48//35 49//35 46//35 24//35 50//35 52//35 53//35 54//35 51//35 60//35 62//35 63//35 64//35 61//35
usemtl Table_Top
s off
f 174//97 176//97 177//97 178//97 179//97 180//97 175//97 188//97 190//97 191//97 192//97 193//97 194//97 189//97 202//97 204//97 205//97 206//97 207//97 208//97 203//97 216//97 218//97 219//97 220//97 221//97 222//97 217//97
f 174//105 217//105 209//105 168//105
f 174//106 168//106 173//106 176//106
f 176//107 173//107 172//107 177//107
f 177//108 172//108 171//108 178//108
f 178//109 171//109 170//109 179//109
f 179//110 170//110 169//110 180//110
f 180//111 169//111 167//111 175//111
f 209//35 211//35 212//35 213//35 214//35 215//35 210//35 195//35 197//35 198//35 199//35 200//35 201//35 196//35 181//35 183//35 184//35 185//35 186//35 187//35 182//35 167//35 169//35 170//35 171//35 172//35 173//35 168//35
f 188//112 182//112 187//112 190//112
f 190//113 187//113 186//113 191//113
f 191//114 186//114 185//114 192//114
f 192//115 185//115 184//115 193//115
f 193//116 184//116 183//116 194//116
f 194//117 183//117 181//117 189//117
f 188//100 175//100 167//100 182//100
f 202//118 196//118 201//118 204//118
f 204//119 201//119 200//119 205//119
f 205//120 200//120 199//120 206//120
f 206//121 199//121 198//121 207//121
f 207//122 198//122 197//122 208//122
f 208//123 197//123 195//123 203//123
f 202//99 189//99 181//99 196//99
f 209//124 217//124 222//124 211//124
f 211//125 222//125 221//125 212//125
f 212//126 221//126 220//126 213//126
f 213//127 220//127 219//127 214//127
f 214//128 219//128 218//128 215//128
f 215//129 218//129 216//129 210//129
f 216//104 203//104 195//104 210//104
